<?xml version="1.0" encoding="utf-8"?>
<!-- Generator: Adobe Illustrator 26.2.1, SVG Export Plug-In . SVG Version: 6.00 Build 0)  -->
<svg version="1.1" id="图层_1" xmlns="http://www.w3.org/2000/svg" xmlns:xlink="http://www.w3.org/1999/xlink" x="0px" y="0px"
	 viewBox="0 0 128 128" style="enable-background:new 0 0 128 128;" xml:space="preserve">
<style type="text/css">
	.st0{fill:#29ABE2;}
</style>
<g>
	<g>
		<path class="st0" d="M32.42,69.77c2.31,5.08,5.03,10.61,10.4,13.05c5.07,2.31,10.91,0.75,15.19-2.5
			c4.63-3.52,7.74-8.65,10.87-13.45c3.27-5.02,6.44-10.1,9.77-15.07c3.84-5.72,7.91-11.27,12.57-16.36c1.3-1.42-0.81-3.55-2.12-2.12
			c-7.67,8.38-13.78,17.98-19.89,27.51c-2.93,4.56-5.72,9.4-9.26,13.52c-3.26,3.8-7.99,7.26-13.29,6.53
			c-6.3-0.87-9.32-7.49-11.64-12.61C34.21,66.5,31.63,68.02,32.42,69.77L32.42,69.77z"/>
	</g>
</g>
</svg>
