<?xml version="1.0" encoding="utf-8"?>
<!-- Generator: Adobe Illustrator 26.2.1, SVG Export Plug-In . SVG Version: 6.00 Build 0)  -->
<svg version="1.1" id="图层_1" xmlns="http://www.w3.org/2000/svg" xmlns:xlink="http://www.w3.org/1999/xlink" x="0px" y="0px"
	 viewBox="0 0 128 128" style="enable-background:new 0 0 128 128;" xml:space="preserve">
<style type="text/css">
	.st0{fill:#FFFFFF;}
	.st1{fill:none;stroke:#000000;stroke-miterlimit:10;}
</style>
<g>
	<circle class="st0" cx="38" cy="42" r="7.5"/>
	<path d="M38,35c3.86,0,7,3.14,7,7s-3.14,7-7,7s-7-3.14-7-7S34.14,35,38,35 M38,34c-4.42,0-8,3.58-8,8s3.58,8,8,8s8-3.58,8-8
		S42.42,34,38,34L38,34z"/>
</g>
<g>
	<circle class="st0" cx="85" cy="43" r="7.5"/>
	<path d="M85,36c3.86,0,7,3.14,7,7s-3.14,7-7,7s-7-3.14-7-7S81.14,36,85,36 M85,35c-4.42,0-8,3.58-8,8s3.58,8,8,8s8-3.58,8-8
		S89.42,35,85,35L85,35z"/>
</g>
<g id="XMLID_00000135658728745790316740000003086367681583203988_">
	<g>
		<path class="st0" d="M86.5,80.5c2.27,5.49-9.16,19.41-23,20c-10.33,0.44-17.68-6.72-19-8c-4.12-4.01-6.08-8.4-7-11
			C74.64,74.05,84.81,76.42,86.5,80.5z"/>
	</g>
	<g>
		<path class="st1" d="M37.5,81.5c0.92,2.6,2.88,6.99,7,11c1.32,1.28,8.67,8.44,19,8c13.84-0.59,25.27-14.51,23-20
			C84.81,76.42,74.64,74.05,37.5,81.5z"/>
	</g>
</g>
</svg>
