<?xml version="1.0" encoding="utf-8"?>
<!-- Generator: Adobe Illustrator 26.2.1, SVG Export Plug-In . SVG Version: 6.00 Build 0)  -->
<svg version="1.1" id="图层_1" xmlns="http://www.w3.org/2000/svg" xmlns:xlink="http://www.w3.org/1999/xlink" x="0px" y="0px"
	 viewBox="0 0 128 128" style="enable-background:new 0 0 128 128;" xml:space="preserve">
<style type="text/css">
	.st0{fill:#FFFFFF;stroke:#FF3F70;stroke-miterlimit:10;}
	.st1{fill:#FFFFFF;stroke:#E93F70;stroke-miterlimit:10;}
	.st2{fill:#FF3F70;stroke:#E93F70;stroke-miterlimit:10;}
</style>
<path class="st0" d="M118.5,48.5c-0.91-2.06-5.69-0.67-17-1c-6.98-0.28-21.33-1.4-31.03-2.4c-1.44-1.72,4.78-6.13,5.03-12.6
	c0.23-6.21-5.11-12.57-8-12c-4.01,2.56-2.33,17.6-16,23c0.34,16.24,0.68,32.48,1.02,48.72C111.18,97.36,97.05,97.66,118.5,48.5z"/>
<path class="st1" d="M36.5,43.5c-1.92,1.39-2.93,3.75-3,23c0.28,16.17-0.28,7.72,0,20c0.61,4.68-0.41,4.34,6,5
	c9.77,1.66,5.66-9.26,6-24C44.65,48.56,48.02,38.46,36.5,43.5z"/>
<path class="st2" d="M169.5,58.5"/>
</svg>
